<mxfile host="app.diagrams.net" agent="Mozilla/5.0 (Windows NT 10.0; Win64; x64) AppleWebKit/537.36 (KHTML, like Gecko) Chrome/129.0.0.0 Safari/537.36 Edg/129.0.0.0" version="24.7.17">
  <diagram name="Страница — 1" id="QNklF6wXZbDUtAcuk4Ib">
    <mxGraphModel dx="993" dy="778" grid="1" gridSize="10" guides="1" tooltips="1" connect="1" arrows="1" fold="1" page="1" pageScale="1" pageWidth="827" pageHeight="1169" math="0" shadow="0">
      <root>
        <mxCell id="0" />
        <mxCell id="1" parent="0" />
        <mxCell id="We6xwW4RgAyexQRVUmbn-1" value="ImmutableRenderGeometry" style="rounded=0;whiteSpace=wrap;html=1;" vertex="1" parent="1">
          <mxGeometry x="50" y="280" width="120" height="60" as="geometry" />
        </mxCell>
        <mxCell id="We6xwW4RgAyexQRVUmbn-2" value="&lt;font style=&quot;font-size: 12px;&quot;&gt;CreateLoad&lt;/font&gt;&lt;div&gt;&lt;font style=&quot;font-size: 12px;&quot;&gt;Geometry&lt;/font&gt;&lt;/div&gt;&lt;div&gt;&lt;font style=&quot;font-size: 12px;&quot;&gt;DescriptionFile&lt;/font&gt;&lt;/div&gt;&lt;div&gt;&lt;font style=&quot;font-size: 12px;&quot;&gt;Request&lt;/font&gt;&lt;/div&gt;" style="ellipse;whiteSpace=wrap;html=1;aspect=fixed;" vertex="1" parent="1">
          <mxGeometry x="270" y="270" width="80" height="80" as="geometry" />
        </mxCell>
        <mxCell id="We6xwW4RgAyexQRVUmbn-3" value="" style="endArrow=classic;html=1;rounded=0;exitX=1;exitY=0.5;exitDx=0;exitDy=0;entryX=0;entryY=0.5;entryDx=0;entryDy=0;" edge="1" parent="1" source="We6xwW4RgAyexQRVUmbn-1" target="We6xwW4RgAyexQRVUmbn-2">
          <mxGeometry width="50" height="50" relative="1" as="geometry">
            <mxPoint x="520" y="510" as="sourcePoint" />
            <mxPoint x="570" y="460" as="targetPoint" />
          </mxGeometry>
        </mxCell>
        <mxCell id="We6xwW4RgAyexQRVUmbn-4" value="" style="endArrow=classic;html=1;rounded=0;exitX=1;exitY=0.5;exitDx=0;exitDy=0;" edge="1" parent="1" source="We6xwW4RgAyexQRVUmbn-2">
          <mxGeometry width="50" height="50" relative="1" as="geometry">
            <mxPoint x="470" y="470" as="sourcePoint" />
            <mxPoint x="450" y="310" as="targetPoint" />
          </mxGeometry>
        </mxCell>
        <mxCell id="We6xwW4RgAyexQRVUmbn-5" value="Create" style="edgeLabel;html=1;align=center;verticalAlign=middle;resizable=0;points=[];" vertex="1" connectable="0" parent="We6xwW4RgAyexQRVUmbn-4">
          <mxGeometry x="0.0297" y="1" relative="1" as="geometry">
            <mxPoint x="-12" y="-9" as="offset" />
          </mxGeometry>
        </mxCell>
        <mxCell id="We6xwW4RgAyexQRVUmbn-6" value="&lt;span style=&quot;font-size: 11px; text-wrap: nowrap; background-color: rgb(255, 255, 255);&quot;&gt;LoadGeometry&lt;/span&gt;&lt;div style=&quot;font-size: 11px; text-wrap: nowrap;&quot;&gt;Description&lt;/div&gt;&lt;div style=&quot;font-size: 11px; text-wrap: nowrap;&quot;&gt;FileRequest&lt;/div&gt;" style="rounded=0;whiteSpace=wrap;html=1;" vertex="1" parent="1">
          <mxGeometry x="450" y="280" width="120" height="60" as="geometry" />
        </mxCell>
        <mxCell id="We6xwW4RgAyexQRVUmbn-7" value="Load&lt;div&gt;Geometry&lt;br&gt;Description&lt;br&gt;File&lt;/div&gt;" style="ellipse;whiteSpace=wrap;html=1;aspect=fixed;" vertex="1" parent="1">
          <mxGeometry x="640" y="270" width="80" height="80" as="geometry" />
        </mxCell>
        <mxCell id="We6xwW4RgAyexQRVUmbn-8" value="" style="endArrow=classic;html=1;rounded=0;exitX=1;exitY=0.5;exitDx=0;exitDy=0;entryX=0;entryY=0.5;entryDx=0;entryDy=0;" edge="1" parent="1" source="We6xwW4RgAyexQRVUmbn-6" target="We6xwW4RgAyexQRVUmbn-7">
          <mxGeometry width="50" height="50" relative="1" as="geometry">
            <mxPoint x="470" y="470" as="sourcePoint" />
            <mxPoint x="520" y="420" as="targetPoint" />
          </mxGeometry>
        </mxCell>
        <mxCell id="We6xwW4RgAyexQRVUmbn-9" value="" style="endArrow=classic;html=1;rounded=0;exitX=1;exitY=0.5;exitDx=0;exitDy=0;" edge="1" parent="1" source="We6xwW4RgAyexQRVUmbn-7">
          <mxGeometry width="50" height="50" relative="1" as="geometry">
            <mxPoint x="900" y="470" as="sourcePoint" />
            <mxPoint x="790" y="310" as="targetPoint" />
          </mxGeometry>
        </mxCell>
        <mxCell id="We6xwW4RgAyexQRVUmbn-17" value="Create" style="edgeLabel;html=1;align=center;verticalAlign=middle;resizable=0;points=[];" vertex="1" connectable="0" parent="We6xwW4RgAyexQRVUmbn-9">
          <mxGeometry x="-0.13" y="-2" relative="1" as="geometry">
            <mxPoint as="offset" />
          </mxGeometry>
        </mxCell>
        <mxCell id="We6xwW4RgAyexQRVUmbn-11" value="GeometryFile" style="rounded=0;whiteSpace=wrap;html=1;" vertex="1" parent="1">
          <mxGeometry x="790" y="280" width="120" height="60" as="geometry" />
        </mxCell>
        <mxCell id="We6xwW4RgAyexQRVUmbn-12" value="Create&lt;br&gt;Load&lt;br&gt;Mesh&lt;br&gt;Request" style="ellipse;whiteSpace=wrap;html=1;aspect=fixed;" vertex="1" parent="1">
          <mxGeometry x="990" y="270" width="80" height="80" as="geometry" />
        </mxCell>
        <mxCell id="We6xwW4RgAyexQRVUmbn-13" value="" style="endArrow=classic;html=1;rounded=0;exitX=1;exitY=0.5;exitDx=0;exitDy=0;entryX=0;entryY=0.5;entryDx=0;entryDy=0;" edge="1" parent="1" source="We6xwW4RgAyexQRVUmbn-11" target="We6xwW4RgAyexQRVUmbn-12">
          <mxGeometry width="50" height="50" relative="1" as="geometry">
            <mxPoint x="1190" y="460" as="sourcePoint" />
            <mxPoint x="1240" y="410" as="targetPoint" />
          </mxGeometry>
        </mxCell>
        <mxCell id="We6xwW4RgAyexQRVUmbn-14" value="" style="endArrow=classic;html=1;rounded=0;exitX=1;exitY=0.5;exitDx=0;exitDy=0;" edge="1" parent="1" source="We6xwW4RgAyexQRVUmbn-12">
          <mxGeometry width="50" height="50" relative="1" as="geometry">
            <mxPoint x="1190" y="460" as="sourcePoint" />
            <mxPoint x="1150" y="310" as="targetPoint" />
          </mxGeometry>
        </mxCell>
        <mxCell id="We6xwW4RgAyexQRVUmbn-16" value="Create" style="edgeLabel;html=1;align=center;verticalAlign=middle;resizable=0;points=[];" vertex="1" connectable="0" parent="We6xwW4RgAyexQRVUmbn-14">
          <mxGeometry x="-0.075" y="-2" relative="1" as="geometry">
            <mxPoint as="offset" />
          </mxGeometry>
        </mxCell>
        <mxCell id="We6xwW4RgAyexQRVUmbn-15" value="LoadMeshRequest" style="rounded=0;whiteSpace=wrap;html=1;" vertex="1" parent="1">
          <mxGeometry x="1150" y="280" width="120" height="60" as="geometry" />
        </mxCell>
        <mxCell id="We6xwW4RgAyexQRVUmbn-18" value="LoadMesh" style="ellipse;whiteSpace=wrap;html=1;aspect=fixed;" vertex="1" parent="1">
          <mxGeometry x="1340" y="270" width="80" height="80" as="geometry" />
        </mxCell>
        <mxCell id="We6xwW4RgAyexQRVUmbn-19" value="" style="endArrow=classic;html=1;rounded=0;exitX=1;exitY=0.5;exitDx=0;exitDy=0;entryX=0;entryY=0.5;entryDx=0;entryDy=0;" edge="1" parent="1" source="We6xwW4RgAyexQRVUmbn-15" target="We6xwW4RgAyexQRVUmbn-18">
          <mxGeometry width="50" height="50" relative="1" as="geometry">
            <mxPoint x="1450" y="440" as="sourcePoint" />
            <mxPoint x="1500" y="390" as="targetPoint" />
          </mxGeometry>
        </mxCell>
      </root>
    </mxGraphModel>
  </diagram>
</mxfile>
